<mxfile host="app.diagrams.net" modified="2020-10-12T14:33:24.724Z" agent="5.0 (Windows NT 10.0; Win64; x64) AppleWebKit/537.36 (KHTML, like Gecko) Chrome/85.0.4183.121 Safari/537.36" etag="_tzyr_gRiE0TRe4udsLL" version="13.7.9" type="github">
  <diagram id="1i0_ciFNV-c5sHIzB2MD" name="Page-1">
    <mxGraphModel dx="868" dy="433" grid="1" gridSize="10" guides="1" tooltips="1" connect="1" arrows="1" fold="1" page="1" pageScale="1" pageWidth="850" pageHeight="1100" math="0" shadow="0">
      <root>
        <mxCell id="0" />
        <mxCell id="1" parent="0" />
        <mxCell id="PzwQnNtE5YqFAhaQ5UEn-1" value="" style="shape=internalStorage;whiteSpace=wrap;html=1;backgroundOutline=1;dx=30;dy=30;" parent="1" vertex="1">
          <mxGeometry x="175" y="60" width="250" height="220" as="geometry" />
        </mxCell>
        <mxCell id="PzwQnNtE5YqFAhaQ5UEn-2" value="" style="rounded=0;whiteSpace=wrap;html=1;" parent="1" vertex="1">
          <mxGeometry x="175" y="30" width="250" height="30" as="geometry" />
        </mxCell>
        <mxCell id="PzwQnNtE5YqFAhaQ5UEn-3" value="PK" style="text;html=1;strokeColor=none;fillColor=none;align=center;verticalAlign=middle;whiteSpace=wrap;rounded=0;" parent="1" vertex="1">
          <mxGeometry x="175" y="60" width="30" height="30" as="geometry" />
        </mxCell>
        <mxCell id="PzwQnNtE5YqFAhaQ5UEn-5" value="id: INT NOTNULL UNIVOQUE" style="text;html=1;strokeColor=none;fillColor=none;align=left;verticalAlign=middle;whiteSpace=wrap;rounded=0;" parent="1" vertex="1">
          <mxGeometry x="205" y="60" width="220" height="30" as="geometry" />
        </mxCell>
        <mxCell id="PzwQnNtE5YqFAhaQ5UEn-7" value="numero" style="text;html=1;strokeColor=none;fillColor=none;align=left;verticalAlign=middle;whiteSpace=wrap;rounded=0;" parent="1" vertex="1">
          <mxGeometry x="205" y="90" width="60" height="30" as="geometry" />
        </mxCell>
        <mxCell id="PzwQnNtE5YqFAhaQ5UEn-8" value="tipologia" style="text;html=1;strokeColor=none;fillColor=none;align=left;verticalAlign=middle;whiteSpace=wrap;rounded=0;" parent="1" vertex="1">
          <mxGeometry x="205" y="150" width="60" height="30" as="geometry" />
        </mxCell>
        <mxCell id="PzwQnNtE5YqFAhaQ5UEn-10" value="n.persone" style="text;html=1;strokeColor=none;fillColor=none;align=left;verticalAlign=middle;whiteSpace=wrap;rounded=0;" parent="1" vertex="1">
          <mxGeometry x="205" y="120" width="60" height="30" as="geometry" />
        </mxCell>
        <mxCell id="PzwQnNtE5YqFAhaQ5UEn-11" value="piano" style="text;html=1;strokeColor=none;fillColor=none;align=left;verticalAlign=middle;whiteSpace=wrap;rounded=0;" parent="1" vertex="1">
          <mxGeometry x="205" y="180" width="60" height="30" as="geometry" />
        </mxCell>
        <mxCell id="PzwQnNtE5YqFAhaQ5UEn-13" value="costo" style="text;html=1;strokeColor=none;fillColor=none;align=left;verticalAlign=middle;whiteSpace=wrap;rounded=0;" parent="1" vertex="1">
          <mxGeometry x="205" y="240" width="60" height="30" as="geometry" />
        </mxCell>
        <mxCell id="PzwQnNtE5YqFAhaQ5UEn-26" value="SMALLINT NOTNULL" style="text;html=1;strokeColor=none;fillColor=none;align=center;verticalAlign=middle;whiteSpace=wrap;rounded=0;" parent="1" vertex="1">
          <mxGeometry x="295" y="90" width="130" height="30" as="geometry" />
        </mxCell>
        <mxCell id="PzwQnNtE5YqFAhaQ5UEn-29" value="TINYINT DEFAULT(2)" style="text;html=1;strokeColor=none;fillColor=none;align=center;verticalAlign=middle;whiteSpace=wrap;rounded=0;" parent="1" vertex="1">
          <mxGeometry x="295" y="120" width="130" height="30" as="geometry" />
        </mxCell>
        <mxCell id="PzwQnNtE5YqFAhaQ5UEn-30" value="VARCHAR(50)" style="text;html=1;strokeColor=none;fillColor=none;align=center;verticalAlign=middle;whiteSpace=wrap;rounded=0;" parent="1" vertex="1">
          <mxGeometry x="295" y="150" width="130" height="30" as="geometry" />
        </mxCell>
        <mxCell id="PzwQnNtE5YqFAhaQ5UEn-31" value="TINYINT NOTNULL" style="text;html=1;strokeColor=none;fillColor=none;align=center;verticalAlign=middle;whiteSpace=wrap;rounded=0;" parent="1" vertex="1">
          <mxGeometry x="295" y="180" width="130" height="30" as="geometry" />
        </mxCell>
        <mxCell id="PzwQnNtE5YqFAhaQ5UEn-33" value="TINYINT DEFAULT(1)" style="text;html=1;strokeColor=none;fillColor=none;align=center;verticalAlign=middle;whiteSpace=wrap;rounded=0;" parent="1" vertex="1">
          <mxGeometry x="295" y="210" width="130" height="30" as="geometry" />
        </mxCell>
        <mxCell id="PzwQnNtE5YqFAhaQ5UEn-34" value="FLOAT(2.5) NOTNULL" style="text;html=1;strokeColor=none;fillColor=none;align=center;verticalAlign=middle;whiteSpace=wrap;rounded=0;" parent="1" vertex="1">
          <mxGeometry x="295" y="240" width="130" height="30" as="geometry" />
        </mxCell>
        <mxCell id="PzwQnNtE5YqFAhaQ5UEn-44" value="stanze" style="text;html=1;strokeColor=none;fillColor=none;align=center;verticalAlign=middle;whiteSpace=wrap;rounded=0;" parent="1" vertex="1">
          <mxGeometry x="185" y="35" width="230" height="20" as="geometry" />
        </mxCell>
        <mxCell id="CixkEMvf4ZS4essuHJ9_-4" value="disponibilitÃ " style="text;html=1;strokeColor=none;fillColor=none;align=left;verticalAlign=middle;whiteSpace=wrap;rounded=0;" vertex="1" parent="1">
          <mxGeometry x="205" y="210" width="60" height="30" as="geometry" />
        </mxCell>
        <mxCell id="CixkEMvf4ZS4essuHJ9_-5" style="edgeStyle=orthogonalEdgeStyle;rounded=0;orthogonalLoop=1;jettySize=auto;html=1;exitX=0.5;exitY=1;exitDx=0;exitDy=0;" edge="1" parent="1" source="PzwQnNtE5YqFAhaQ5UEn-1" target="PzwQnNtE5YqFAhaQ5UEn-1">
          <mxGeometry relative="1" as="geometry" />
        </mxCell>
        <mxCell id="CixkEMvf4ZS4essuHJ9_-6" value="" style="shape=internalStorage;whiteSpace=wrap;html=1;backgroundOutline=1;dx=30;dy=30;" vertex="1" parent="1">
          <mxGeometry x="590" y="59" width="250" height="401" as="geometry" />
        </mxCell>
        <mxCell id="CixkEMvf4ZS4essuHJ9_-7" value="" style="rounded=0;whiteSpace=wrap;html=1;" vertex="1" parent="1">
          <mxGeometry x="590" y="29" width="250" height="30" as="geometry" />
        </mxCell>
        <mxCell id="CixkEMvf4ZS4essuHJ9_-8" value="PK" style="text;html=1;strokeColor=none;fillColor=none;align=center;verticalAlign=middle;whiteSpace=wrap;rounded=0;" vertex="1" parent="1">
          <mxGeometry x="590" y="59" width="30" height="30" as="geometry" />
        </mxCell>
        <mxCell id="CixkEMvf4ZS4essuHJ9_-9" value="id: INT NOTNULL UNIVOQUE" style="text;html=1;strokeColor=none;fillColor=none;align=left;verticalAlign=middle;whiteSpace=wrap;rounded=0;" vertex="1" parent="1">
          <mxGeometry x="620" y="59" width="220" height="30" as="geometry" />
        </mxCell>
        <mxCell id="CixkEMvf4ZS4essuHJ9_-10" value="codice" style="text;html=1;strokeColor=none;fillColor=none;align=left;verticalAlign=middle;whiteSpace=wrap;rounded=0;" vertex="1" parent="1">
          <mxGeometry x="620" y="89" width="60" height="30" as="geometry" />
        </mxCell>
        <mxCell id="CixkEMvf4ZS4essuHJ9_-11" value="operatore" style="text;html=1;strokeColor=none;fillColor=none;align=left;verticalAlign=middle;whiteSpace=wrap;rounded=0;" vertex="1" parent="1">
          <mxGeometry x="620" y="149" width="60" height="30" as="geometry" />
        </mxCell>
        <mxCell id="CixkEMvf4ZS4essuHJ9_-12" value="n.persone" style="text;html=1;strokeColor=none;fillColor=none;align=left;verticalAlign=middle;whiteSpace=wrap;rounded=0;" vertex="1" parent="1">
          <mxGeometry x="620" y="119" width="60" height="30" as="geometry" />
        </mxCell>
        <mxCell id="CixkEMvf4ZS4essuHJ9_-13" value="richieste" style="text;html=1;strokeColor=none;fillColor=none;align=left;verticalAlign=middle;whiteSpace=wrap;rounded=0;" vertex="1" parent="1">
          <mxGeometry x="620" y="179" width="60" height="30" as="geometry" />
        </mxCell>
        <mxCell id="CixkEMvf4ZS4essuHJ9_-14" value="prezzo" style="text;html=1;strokeColor=none;fillColor=none;align=left;verticalAlign=middle;whiteSpace=wrap;rounded=0;" vertex="1" parent="1">
          <mxGeometry x="620" y="420" width="60" height="30" as="geometry" />
        </mxCell>
        <mxCell id="CixkEMvf4ZS4essuHJ9_-15" value="SMALLINT NOTNULL" style="text;html=1;strokeColor=none;fillColor=none;align=center;verticalAlign=middle;whiteSpace=wrap;rounded=0;" vertex="1" parent="1">
          <mxGeometry x="710" y="89" width="130" height="30" as="geometry" />
        </mxCell>
        <mxCell id="CixkEMvf4ZS4essuHJ9_-16" value="TINYINT DEFAULT(1)" style="text;html=1;strokeColor=none;fillColor=none;align=center;verticalAlign=middle;whiteSpace=wrap;rounded=0;" vertex="1" parent="1">
          <mxGeometry x="710" y="119" width="130" height="30" as="geometry" />
        </mxCell>
        <mxCell id="CixkEMvf4ZS4essuHJ9_-17" value="VARCHAR(50)" style="text;html=1;strokeColor=none;fillColor=none;align=center;verticalAlign=middle;whiteSpace=wrap;rounded=0;" vertex="1" parent="1">
          <mxGeometry x="710" y="149" width="130" height="30" as="geometry" />
        </mxCell>
        <mxCell id="CixkEMvf4ZS4essuHJ9_-18" value="TEXT" style="text;html=1;strokeColor=none;fillColor=none;align=center;verticalAlign=middle;whiteSpace=wrap;rounded=0;" vertex="1" parent="1">
          <mxGeometry x="710" y="179" width="130" height="30" as="geometry" />
        </mxCell>
        <mxCell id="CixkEMvf4ZS4essuHJ9_-19" value="TINYINT NOTNULL&amp;nbsp;" style="text;html=1;strokeColor=none;fillColor=none;align=center;verticalAlign=middle;whiteSpace=wrap;rounded=0;" vertex="1" parent="1">
          <mxGeometry x="710" y="209" width="130" height="30" as="geometry" />
        </mxCell>
        <mxCell id="CixkEMvf4ZS4essuHJ9_-20" value="FLOAT(2.5) NOTNULL" style="text;html=1;strokeColor=none;fillColor=none;align=center;verticalAlign=middle;whiteSpace=wrap;rounded=0;" vertex="1" parent="1">
          <mxGeometry x="710" y="420" width="130" height="30" as="geometry" />
        </mxCell>
        <mxCell id="CixkEMvf4ZS4essuHJ9_-21" value="prenotazioni" style="text;html=1;strokeColor=none;fillColor=none;align=center;verticalAlign=middle;whiteSpace=wrap;rounded=0;" vertex="1" parent="1">
          <mxGeometry x="600" y="34" width="230" height="20" as="geometry" />
        </mxCell>
        <mxCell id="CixkEMvf4ZS4essuHJ9_-22" value="giorni" style="text;html=1;strokeColor=none;fillColor=none;align=left;verticalAlign=middle;whiteSpace=wrap;rounded=0;" vertex="1" parent="1">
          <mxGeometry x="620" y="209" width="60" height="30" as="geometry" />
        </mxCell>
        <mxCell id="CixkEMvf4ZS4essuHJ9_-23" style="edgeStyle=orthogonalEdgeStyle;rounded=0;orthogonalLoop=1;jettySize=auto;html=1;exitX=0.5;exitY=1;exitDx=0;exitDy=0;" edge="1" source="CixkEMvf4ZS4essuHJ9_-6" target="CixkEMvf4ZS4essuHJ9_-6" parent="1">
          <mxGeometry relative="1" as="geometry" />
        </mxCell>
        <mxCell id="CixkEMvf4ZS4essuHJ9_-25" value="arrivo" style="text;html=1;strokeColor=none;fillColor=none;align=left;verticalAlign=middle;whiteSpace=wrap;rounded=0;" vertex="1" parent="1">
          <mxGeometry x="620" y="240" width="60" height="30" as="geometry" />
        </mxCell>
        <mxCell id="CixkEMvf4ZS4essuHJ9_-27" value="partenza" style="text;html=1;strokeColor=none;fillColor=none;align=left;verticalAlign=middle;whiteSpace=wrap;rounded=0;" vertex="1" parent="1">
          <mxGeometry x="620" y="270" width="60" height="30" as="geometry" />
        </mxCell>
        <mxCell id="CixkEMvf4ZS4essuHJ9_-28" value="DATA(YYYY-MM-GG)" style="text;html=1;strokeColor=none;fillColor=none;align=center;verticalAlign=middle;whiteSpace=wrap;rounded=0;" vertex="1" parent="1">
          <mxGeometry x="710" y="239" width="130" height="30" as="geometry" />
        </mxCell>
        <mxCell id="CixkEMvf4ZS4essuHJ9_-29" value="DATA(YYYY-MM-GG)" style="text;html=1;strokeColor=none;fillColor=none;align=center;verticalAlign=middle;whiteSpace=wrap;rounded=0;" vertex="1" parent="1">
          <mxGeometry x="710" y="270" width="130" height="30" as="geometry" />
        </mxCell>
        <mxCell id="CixkEMvf4ZS4essuHJ9_-30" value="bambini" style="text;html=1;strokeColor=none;fillColor=none;align=left;verticalAlign=middle;whiteSpace=wrap;rounded=0;" vertex="1" parent="1">
          <mxGeometry x="620" y="300" width="60" height="30" as="geometry" />
        </mxCell>
        <mxCell id="CixkEMvf4ZS4essuHJ9_-32" value="TINYINT DEFAULT(0)" style="text;html=1;strokeColor=none;fillColor=none;align=center;verticalAlign=middle;whiteSpace=wrap;rounded=0;" vertex="1" parent="1">
          <mxGeometry x="710" y="300" width="130" height="30" as="geometry" />
        </mxCell>
        <mxCell id="CixkEMvf4ZS4essuHJ9_-34" value="animali" style="text;html=1;strokeColor=none;fillColor=none;align=left;verticalAlign=middle;whiteSpace=wrap;rounded=0;" vertex="1" parent="1">
          <mxGeometry x="620" y="330" width="60" height="30" as="geometry" />
        </mxCell>
        <mxCell id="CixkEMvf4ZS4essuHJ9_-35" value="TINYINT DEFAULT(0)" style="text;html=1;strokeColor=none;fillColor=none;align=center;verticalAlign=middle;whiteSpace=wrap;rounded=0;" vertex="1" parent="1">
          <mxGeometry x="710" y="330" width="130" height="30" as="geometry" />
        </mxCell>
        <mxCell id="CixkEMvf4ZS4essuHJ9_-36" value="" style="endArrow=none;html=1;exitX=1;exitY=0.5;exitDx=0;exitDy=0;" edge="1" parent="1" source="CixkEMvf4ZS4essuHJ9_-37">
          <mxGeometry width="50" height="50" relative="1" as="geometry">
            <mxPoint x="560" y="280" as="sourcePoint" />
            <mxPoint x="589" y="184" as="targetPoint" />
          </mxGeometry>
        </mxCell>
        <mxCell id="CixkEMvf4ZS4essuHJ9_-37" value="" style="rhombus;whiteSpace=wrap;html=1;" vertex="1" parent="1">
          <mxGeometry x="480" y="150" width="60" height="60" as="geometry" />
        </mxCell>
        <mxCell id="CixkEMvf4ZS4essuHJ9_-38" value="" style="endArrow=none;html=1;entryX=0;entryY=0.5;entryDx=0;entryDy=0;" edge="1" parent="1" target="CixkEMvf4ZS4essuHJ9_-37">
          <mxGeometry width="50" height="50" relative="1" as="geometry">
            <mxPoint x="425" y="184" as="sourcePoint" />
            <mxPoint x="589" y="182.13200000000006" as="targetPoint" />
          </mxGeometry>
        </mxCell>
        <mxCell id="CixkEMvf4ZS4essuHJ9_-39" value="1" style="text;html=1;align=center;verticalAlign=middle;resizable=0;points=[];autosize=1;" vertex="1" parent="1">
          <mxGeometry x="460" y="150" width="20" height="20" as="geometry" />
        </mxCell>
        <mxCell id="CixkEMvf4ZS4essuHJ9_-40" value="*" style="text;html=1;align=center;verticalAlign=middle;resizable=0;points=[];autosize=1;" vertex="1" parent="1">
          <mxGeometry x="530" y="149" width="20" height="20" as="geometry" />
        </mxCell>
        <mxCell id="CixkEMvf4ZS4essuHJ9_-41" value="n.stanze" style="text;html=1;strokeColor=none;fillColor=none;align=left;verticalAlign=middle;whiteSpace=wrap;rounded=0;" vertex="1" parent="1">
          <mxGeometry x="620" y="360" width="60" height="30" as="geometry" />
        </mxCell>
        <mxCell id="CixkEMvf4ZS4essuHJ9_-42" value="TINYINT DEFAULT(1)" style="text;html=1;strokeColor=none;fillColor=none;align=center;verticalAlign=middle;whiteSpace=wrap;rounded=0;" vertex="1" parent="1">
          <mxGeometry x="710" y="360" width="130" height="30" as="geometry" />
        </mxCell>
        <mxCell id="CixkEMvf4ZS4essuHJ9_-43" value="" style="shape=internalStorage;whiteSpace=wrap;html=1;backgroundOutline=1;dx=30;dy=30;" vertex="1" parent="1">
          <mxGeometry x="175" y="500" width="250" height="310" as="geometry" />
        </mxCell>
        <mxCell id="CixkEMvf4ZS4essuHJ9_-44" value="" style="rounded=0;whiteSpace=wrap;html=1;" vertex="1" parent="1">
          <mxGeometry x="175" y="470" width="250" height="30" as="geometry" />
        </mxCell>
        <mxCell id="CixkEMvf4ZS4essuHJ9_-45" value="PK" style="text;html=1;strokeColor=none;fillColor=none;align=center;verticalAlign=middle;whiteSpace=wrap;rounded=0;" vertex="1" parent="1">
          <mxGeometry x="175" y="500" width="30" height="30" as="geometry" />
        </mxCell>
        <mxCell id="CixkEMvf4ZS4essuHJ9_-46" value="id: INT NOTNULL UNIVOQUE" style="text;html=1;strokeColor=none;fillColor=none;align=left;verticalAlign=middle;whiteSpace=wrap;rounded=0;" vertex="1" parent="1">
          <mxGeometry x="205" y="500" width="220" height="30" as="geometry" />
        </mxCell>
        <mxCell id="CixkEMvf4ZS4essuHJ9_-47" value="nome" style="text;html=1;strokeColor=none;fillColor=none;align=left;verticalAlign=middle;whiteSpace=wrap;rounded=0;" vertex="1" parent="1">
          <mxGeometry x="205" y="530" width="60" height="30" as="geometry" />
        </mxCell>
        <mxCell id="CixkEMvf4ZS4essuHJ9_-48" value="n. carta id" style="text;html=1;strokeColor=none;fillColor=none;align=left;verticalAlign=middle;whiteSpace=wrap;rounded=0;" vertex="1" parent="1">
          <mxGeometry x="205" y="590" width="60" height="30" as="geometry" />
        </mxCell>
        <mxCell id="CixkEMvf4ZS4essuHJ9_-49" value="cognome" style="text;html=1;strokeColor=none;fillColor=none;align=left;verticalAlign=middle;whiteSpace=wrap;rounded=0;" vertex="1" parent="1">
          <mxGeometry x="205" y="560" width="60" height="30" as="geometry" />
        </mxCell>
        <mxCell id="CixkEMvf4ZS4essuHJ9_-50" value="data di nascita" style="text;html=1;strokeColor=none;fillColor=none;align=left;verticalAlign=middle;whiteSpace=wrap;rounded=0;" vertex="1" parent="1">
          <mxGeometry x="205" y="620" width="60" height="30" as="geometry" />
        </mxCell>
        <mxCell id="CixkEMvf4ZS4essuHJ9_-52" value="VARCHAR(100) NOTNULL" style="text;html=1;strokeColor=none;fillColor=none;align=center;verticalAlign=middle;whiteSpace=wrap;rounded=0;" vertex="1" parent="1">
          <mxGeometry x="295" y="530" width="130" height="30" as="geometry" />
        </mxCell>
        <mxCell id="CixkEMvf4ZS4essuHJ9_-53" value="VARCHAR(100) NOTNULL" style="text;html=1;strokeColor=none;fillColor=none;align=center;verticalAlign=middle;whiteSpace=wrap;rounded=0;" vertex="1" parent="1">
          <mxGeometry x="295" y="560" width="130" height="30" as="geometry" />
        </mxCell>
        <mxCell id="CixkEMvf4ZS4essuHJ9_-54" value="TINYINT NOTNULL" style="text;html=1;strokeColor=none;fillColor=none;align=center;verticalAlign=middle;whiteSpace=wrap;rounded=0;" vertex="1" parent="1">
          <mxGeometry x="295" y="590" width="130" height="30" as="geometry" />
        </mxCell>
        <mxCell id="CixkEMvf4ZS4essuHJ9_-55" value="DATA(YYYY-MM-GG) NOTNULL" style="text;html=1;strokeColor=none;fillColor=none;align=center;verticalAlign=middle;whiteSpace=wrap;rounded=0;" vertex="1" parent="1">
          <mxGeometry x="295" y="620" width="130" height="30" as="geometry" />
        </mxCell>
        <mxCell id="CixkEMvf4ZS4essuHJ9_-56" value="VARCHAR(200) NULL" style="text;html=1;strokeColor=none;fillColor=none;align=center;verticalAlign=middle;whiteSpace=wrap;rounded=0;" vertex="1" parent="1">
          <mxGeometry x="295" y="650" width="130" height="30" as="geometry" />
        </mxCell>
        <mxCell id="CixkEMvf4ZS4essuHJ9_-58" value="ospite" style="text;html=1;strokeColor=none;fillColor=none;align=center;verticalAlign=middle;whiteSpace=wrap;rounded=0;" vertex="1" parent="1">
          <mxGeometry x="185" y="475" width="230" height="20" as="geometry" />
        </mxCell>
        <mxCell id="CixkEMvf4ZS4essuHJ9_-59" value="indirizzo" style="text;html=1;strokeColor=none;fillColor=none;align=left;verticalAlign=middle;whiteSpace=wrap;rounded=0;" vertex="1" parent="1">
          <mxGeometry x="205" y="650" width="60" height="30" as="geometry" />
        </mxCell>
        <mxCell id="CixkEMvf4ZS4essuHJ9_-60" style="edgeStyle=orthogonalEdgeStyle;rounded=0;orthogonalLoop=1;jettySize=auto;html=1;exitX=0.5;exitY=1;exitDx=0;exitDy=0;" edge="1" source="CixkEMvf4ZS4essuHJ9_-43" target="CixkEMvf4ZS4essuHJ9_-43" parent="1">
          <mxGeometry relative="1" as="geometry" />
        </mxCell>
        <mxCell id="CixkEMvf4ZS4essuHJ9_-61" value="nazionalitÃ " style="text;html=1;strokeColor=none;fillColor=none;align=left;verticalAlign=middle;whiteSpace=wrap;rounded=0;" vertex="1" parent="1">
          <mxGeometry x="205" y="681" width="60" height="30" as="geometry" />
        </mxCell>
        <mxCell id="CixkEMvf4ZS4essuHJ9_-62" value="carta di credito" style="text;html=1;strokeColor=none;fillColor=none;align=left;verticalAlign=middle;whiteSpace=wrap;rounded=0;" vertex="1" parent="1">
          <mxGeometry x="205" y="711" width="60" height="30" as="geometry" />
        </mxCell>
        <mxCell id="CixkEMvf4ZS4essuHJ9_-63" value="VARCHAR(50) NULL" style="text;html=1;strokeColor=none;fillColor=none;align=center;verticalAlign=middle;whiteSpace=wrap;rounded=0;" vertex="1" parent="1">
          <mxGeometry x="295" y="680" width="130" height="30" as="geometry" />
        </mxCell>
        <mxCell id="CixkEMvf4ZS4essuHJ9_-64" value="VARCHAR(200) NOTNULL" style="text;html=1;strokeColor=none;fillColor=none;align=center;verticalAlign=middle;whiteSpace=wrap;rounded=0;" vertex="1" parent="1">
          <mxGeometry x="295" y="741" width="130" height="30" as="geometry" />
        </mxCell>
        <mxCell id="CixkEMvf4ZS4essuHJ9_-71" value="email" style="text;html=1;strokeColor=none;fillColor=none;align=left;verticalAlign=middle;whiteSpace=wrap;rounded=0;" vertex="1" parent="1">
          <mxGeometry x="205" y="741" width="60" height="30" as="geometry" />
        </mxCell>
        <mxCell id="CixkEMvf4ZS4essuHJ9_-72" value="telefono" style="text;html=1;strokeColor=none;fillColor=none;align=left;verticalAlign=middle;whiteSpace=wrap;rounded=0;" vertex="1" parent="1">
          <mxGeometry x="205" y="771" width="60" height="30" as="geometry" />
        </mxCell>
        <mxCell id="CixkEMvf4ZS4essuHJ9_-73" value="TINYINT NOTNULL" style="text;html=1;strokeColor=none;fillColor=none;align=center;verticalAlign=middle;whiteSpace=wrap;rounded=0;" vertex="1" parent="1">
          <mxGeometry x="295" y="711" width="130" height="30" as="geometry" />
        </mxCell>
        <mxCell id="CixkEMvf4ZS4essuHJ9_-74" value="TINYINT NULL" style="text;html=1;strokeColor=none;fillColor=none;align=center;verticalAlign=middle;whiteSpace=wrap;rounded=0;" vertex="1" parent="1">
          <mxGeometry x="295" y="771" width="130" height="30" as="geometry" />
        </mxCell>
        <mxCell id="CixkEMvf4ZS4essuHJ9_-76" value="colazione" style="text;html=1;strokeColor=none;fillColor=none;align=left;verticalAlign=middle;whiteSpace=wrap;rounded=0;" vertex="1" parent="1">
          <mxGeometry x="620" y="390" width="60" height="30" as="geometry" />
        </mxCell>
        <mxCell id="CixkEMvf4ZS4essuHJ9_-77" value="TINYINT DEFAULT(0)" style="text;html=1;strokeColor=none;fillColor=none;align=center;verticalAlign=middle;whiteSpace=wrap;rounded=0;" vertex="1" parent="1">
          <mxGeometry x="710" y="390" width="130" height="30" as="geometry" />
        </mxCell>
        <mxCell id="CixkEMvf4ZS4essuHJ9_-79" value="" style="endArrow=none;html=1;exitX=0.5;exitY=0;exitDx=0;exitDy=0;" edge="1" parent="1" source="CixkEMvf4ZS4essuHJ9_-80">
          <mxGeometry width="50" height="50" relative="1" as="geometry">
            <mxPoint x="550" y="450" as="sourcePoint" />
            <mxPoint x="300" y="281" as="targetPoint" />
            <Array as="points" />
          </mxGeometry>
        </mxCell>
        <mxCell id="CixkEMvf4ZS4essuHJ9_-80" value="" style="rhombus;whiteSpace=wrap;html=1;" vertex="1" parent="1">
          <mxGeometry x="270" y="350" width="60" height="60" as="geometry" />
        </mxCell>
        <mxCell id="CixkEMvf4ZS4essuHJ9_-81" value="" style="endArrow=none;html=1;entryX=0.476;entryY=1.005;entryDx=0;entryDy=0;entryPerimeter=0;exitX=0.5;exitY=0;exitDx=0;exitDy=0;" edge="1" parent="1" source="CixkEMvf4ZS4essuHJ9_-44" target="CixkEMvf4ZS4essuHJ9_-80">
          <mxGeometry width="50" height="50" relative="1" as="geometry">
            <mxPoint x="300" y="470" as="sourcePoint" />
            <mxPoint x="294" y="281.0999999999999" as="targetPoint" />
            <Array as="points" />
          </mxGeometry>
        </mxCell>
        <mxCell id="CixkEMvf4ZS4essuHJ9_-83" value="" style="endArrow=none;html=1;exitX=0.5;exitY=0;exitDx=0;exitDy=0;" edge="1" parent="1" source="CixkEMvf4ZS4essuHJ9_-84">
          <mxGeometry width="50" height="50" relative="1" as="geometry">
            <mxPoint x="700" y="640" as="sourcePoint" />
            <mxPoint x="700" y="460" as="targetPoint" />
            <Array as="points">
              <mxPoint x="700" y="460" />
            </Array>
          </mxGeometry>
        </mxCell>
        <mxCell id="CixkEMvf4ZS4essuHJ9_-84" value="" style="rhombus;whiteSpace=wrap;html=1;" vertex="1" parent="1">
          <mxGeometry x="660" y="601" width="70" height="69" as="geometry" />
        </mxCell>
        <mxCell id="CixkEMvf4ZS4essuHJ9_-85" value="*" style="text;html=1;align=center;verticalAlign=middle;resizable=0;points=[];autosize=1;" vertex="1" parent="1">
          <mxGeometry x="270" y="410" width="20" height="20" as="geometry" />
        </mxCell>
        <mxCell id="CixkEMvf4ZS4essuHJ9_-86" value="1" style="text;html=1;align=center;verticalAlign=middle;resizable=0;points=[];autosize=1;" vertex="1" parent="1">
          <mxGeometry x="265" y="340" width="20" height="20" as="geometry" />
        </mxCell>
        <mxCell id="CixkEMvf4ZS4essuHJ9_-87" value="*" style="text;html=1;strokeColor=none;fillColor=none;align=center;verticalAlign=middle;whiteSpace=wrap;rounded=0;" vertex="1" parent="1">
          <mxGeometry x="640" y="660" width="40" height="20" as="geometry" />
        </mxCell>
        <mxCell id="CixkEMvf4ZS4essuHJ9_-88" value="1" style="text;html=1;align=center;verticalAlign=middle;resizable=0;points=[];autosize=1;" vertex="1" parent="1">
          <mxGeometry x="650" y="600" width="20" height="20" as="geometry" />
        </mxCell>
        <mxCell id="CixkEMvf4ZS4essuHJ9_-89" value="" style="endArrow=none;html=1;" edge="1" parent="1">
          <mxGeometry width="50" height="50" relative="1" as="geometry">
            <mxPoint x="425" y="760" as="sourcePoint" />
            <mxPoint x="700" y="760" as="targetPoint" />
          </mxGeometry>
        </mxCell>
        <mxCell id="CixkEMvf4ZS4essuHJ9_-90" value="" style="endArrow=none;html=1;entryX=0.5;entryY=1;entryDx=0;entryDy=0;" edge="1" parent="1" target="CixkEMvf4ZS4essuHJ9_-84">
          <mxGeometry width="50" height="50" relative="1" as="geometry">
            <mxPoint x="695" y="760" as="sourcePoint" />
            <mxPoint x="700" y="670" as="targetPoint" />
          </mxGeometry>
        </mxCell>
      </root>
    </mxGraphModel>
  </diagram>
</mxfile>
